<svg version="1.1" xmlns="http://www.w3.org/2000/svg" width="16" height="32" viewBox="0 0 16 32" style="enable-background:new 0 0 16 32"><path d="M3.299,30.75c-0.126,0-0.153-0.123-0.153-0.227c0-0.053,0.007-0.098,0.016-0.149l0.85-4.851l-3.596-3.437
	c-0.144-0.151-0.166-0.239-0.166-0.278c0-0.131,0.25-0.179,0.327-0.19l4.955-0.707l2.221-4.417C7.826,16.341,7.924,16.242,8,16.242
	c0.087,0,0.186,0.123,0.245,0.246l2.222,4.421l4.958,0.707c0.031,0.005,0.325,0.055,0.325,0.19c0,0.025-0.014,0.121-0.177,0.28
	l-3.584,3.435l0.85,4.852c0.011,0.055,0.009,0.1,0.009,0.146c0,0.151-0.049,0.228-0.146,0.228c-0.075,0-0.169-0.028-0.259-0.08
	L8,28.375l-4.435,2.292C3.453,30.725,3.371,30.75,3.299,30.75z" style="fill:#fff"/><path d="M3.299,14.754c-0.126,0-0.153-0.123-0.153-0.227c0-0.052,0.007-0.097,0.016-0.149l0.85-4.851L0.416,6.091
		C0.272,5.939,0.25,5.851,0.25,5.813c0-0.132,0.25-0.179,0.327-0.191l4.955-0.707l2.221-4.417C7.826,0.345,7.924,0.246,8,0.246
		c0.087,0,0.186,0.123,0.245,0.246l2.222,4.421l4.958,0.707c0.031,0.005,0.325,0.055,0.325,0.191c0,0.025-0.014,0.12-0.177,0.28
		l-3.584,3.434l0.85,4.852c0.011,0.055,0.009,0.099,0.009,0.147c0,0.151-0.049,0.227-0.146,0.227c-0.075,0-0.169-0.029-0.259-0.08
		L8,12.379l-4.435,2.292C3.453,14.728,3.371,14.754,3.299,14.754z" style="fill:#fbb03b"/><path d="M8,0.562c0.007,0.012,0.015,0.027,0.023,0.043l2.163,4.301l0.115,0.231l0.26,0.038l4.822,0.688
		c0.021,0.003,0.04,0.007,0.057,0.011c-0.01,0.013-0.021,0.026-0.037,0.041L11.909,9.26l-0.188,0.181l0.045,0.255l0.828,4.731
		c0.004,0.018,0.004,0.034,0.004,0.05c-0.014-0.008-0.029-0.015-0.047-0.024l-4.318-2.23L8,12.101l-0.232,0.121L3.45,14.454
		c-0.019,0.01-0.035,0.018-0.05,0.024c0.002-0.019,0.005-0.038,0.008-0.057l0.828-4.724l0.045-0.256L4.092,9.26L0.607,5.933
		c-0.02-0.021-0.037-0.04-0.05-0.056c0.016-0.003,0.034-0.008,0.054-0.011l4.827-0.689l0.26-0.037l0.116-0.231l2.167-4.31
		C7.987,0.585,7.994,0.573,8,0.562 M8,0C7.778,0,7.616,0.207,7.529,0.388L5.366,4.69L0.539,5.379C0.299,5.415,0,5.529,0,5.813
		c0,0.168,0.125,0.331,0.241,0.454l3.502,3.346l-0.828,4.725c-0.011,0.066-0.019,0.124-0.019,0.189C2.896,14.773,3.021,15,3.299,15
		c0.133,0,0.258-0.048,0.382-0.112L8,12.657l4.318,2.23c0.113,0.063,0.25,0.112,0.383,0.112c0.279,0,0.396-0.227,0.396-0.473
		c0-0.065,0-0.122-0.015-0.189l-0.827-4.725l3.492-3.345C15.875,6.144,16,5.981,16,5.813c0-0.284-0.307-0.399-0.539-0.435
		l-4.828-0.689L8.471,0.387C8.384,0.207,8.223,0,8,0L8,0z" style="fill:#ba8000"/><path d="M8,16.563c0.007,0.015,0.015,0.026,0.023,0.043l2.163,4.304l0.116,0.231l0.261,0.036l4.821,0.688
	c0.021,0.004,0.038,0.007,0.056,0.011c-0.012,0.013-0.021,0.024-0.039,0.04l-3.487,3.346l-0.188,0.184l0.045,0.254l0.824,4.712
	c0.006,0.022,0.006,0.046,0.006,0.067c-0.015-0.006-0.029-0.017-0.047-0.023l-4.319-2.23L8,28.102l-0.232,0.121l-4.317,2.23
	c-0.02,0.011-0.037,0.02-0.052,0.023c0.002-0.018,0.006-0.033,0.01-0.056l0.826-4.726l0.045-0.254l-0.189-0.185l-3.484-3.33
	c-0.02-0.021-0.036-0.041-0.05-0.058c0.017-0.003,0.035-0.008,0.055-0.01l4.827-0.688l0.26-0.036l0.116-0.23l2.165-4.307
	C7.987,16.586,7.994,16.573,8,16.563 M8,16c-0.222,0-0.383,0.207-0.471,0.388l-2.162,4.303L0.54,21.379
	C0.298,21.415,0,21.529,0,21.813c0,0.17,0.125,0.332,0.242,0.455l3.5,3.346l-0.826,4.726c-0.013,0.063-0.021,0.123-0.021,0.19
	c0,0.244,0.126,0.47,0.403,0.47c0.134,0,0.259-0.048,0.384-0.112L8,28.656l4.318,2.23C12.432,30.952,12.568,31,12.702,31
	c0.278,0,0.396-0.219,0.396-0.473c0-0.064,0-0.123-0.01-0.188l-0.828-4.726l3.49-3.347c0.125-0.121,0.25-0.283,0.25-0.455
	c0-0.28-0.307-0.396-0.538-0.433l-4.827-0.688l-2.163-4.302C8.386,16.207,8.223,16,8,16L8,16z" style="fill:#666"/></svg>